<?xml version="1.0" standalone="no"?>
<!DOCTYPE svg PUBLIC "-//W3C//DTD SVG 20010904//EN"
 "http://www.w3.org/TR/2001/REC-SVG-20010904/DTD/svg10.dtd">
<svg version="1.0" xmlns="http://www.w3.org/2000/svg"
 width="512.000000pt" height="512.000000pt" viewBox="0 0 512.000000 512.000000"
 preserveAspectRatio="xMidYMid meet">
<metadata>
Created by potrace 1.14, written by Peter Selinger 2001-2017
</metadata>
<g transform="translate(0.000000,512.000000) scale(0.100000,-0.100000)"
fill="#000000" stroke="none">
<path d="M1125 5052 c-22 -37 -203 -341 -404 -677 -200 -335 -408 -684 -462
-775 -54 -91 -103 -170 -109 -177 -5 -7 -10 -14 -10 -17 0 -2 -32 -57 -70
-121 l-71 -116 22 -127 c11 -70 22 -136 24 -147 4 -29 14 -87 19 -110 2 -11 7
-42 10 -69 4 -27 9 -52 11 -55 1 -3 6 -24 9 -46 14 -87 20 -123 47 -280 11
-66 22 -131 24 -145 28 -208 30 -212 159 -428 66 -112 129 -216 138 -233 10
-16 55 -91 100 -166 46 -76 87 -146 93 -156 5 -9 105 -177 222 -371 209 -349
213 -354 250 -361 21 -5 43 -9 48 -10 9 -2 1129 -271 1605 -386 113 -27 232
-56 265 -64 l60 -15 130 134 c118 121 450 466 555 576 63 66 426 444 490 510
30 31 143 148 250 260 107 112 251 262 320 334 69 71 145 151 170 177 25 25
58 60 73 77 l29 30 -20 43 c-11 24 -61 148 -112 274 -50 127 -103 254 -116
284 -13 29 -24 58 -24 65 0 6 -7 25 -16 41 -9 17 -47 107 -84 200 -126 315
-147 366 -168 415 -6 14 -36 86 -66 160 -169 421 -373 925 -386 955 -5 11 -28
66 -51 123 -23 56 -44 102 -48 103 -3 0 -17 2 -31 5 -20 3 -454 57 -625 78
-62 8 -286 35 -330 41 -22 3 -148 19 -280 35 -132 17 -253 32 -270 34 -16 2
-55 7 -85 11 -30 4 -66 8 -80 10 -14 2 -52 7 -85 11 -33 3 -68 8 -79 10 -10 2
-44 6 -75 9 -31 4 -67 8 -81 10 -14 2 -47 7 -75 10 -27 3 -63 8 -80 10 -16 2
-52 7 -80 10 -27 3 -61 8 -75 10 -14 2 -56 7 -95 11 -38 3 -72 8 -75 9 -3 2
-35 6 -70 10 -36 3 -76 8 -90 10 -30 5 -110 14 -166 20 l-41 4 -38 -67z"/>
</g>
</svg>
